<svg width="32" height="32" viewBox="0 0 32 32" fill="none" xmlns="http://www.w3.org/2000/svg">
<path d="M1.93235 0.05H29C30.6292 0.05 31.95 1.37076 31.95 3V29.2071H1.93235V0.05Z" fill="white" stroke="#1E1E1E" stroke-width="0.1"/>
<path d="M0.991162 0.964276H28.0588C29.6881 0.964276 31.0088 2.28504 31.0088 3.91428V30.1214H0.991162V0.964276Z" fill="white" stroke="#1E1E1E" stroke-width="0.1"/>
<path d="M0.05 2.79286H27.1177C28.7469 2.79286 30.0676 4.11362 30.0676 5.74286V31.95H0.05V2.79286Z" fill="white" stroke="#1E1E1E" stroke-width="0.1"/>
<line x1="4.70587" y1="5.17898" x2="26.3529" y2="5.17898" stroke="black" stroke-width="0.3"/>
<line x1="4.70587" y1="6.06713" x2="26.3529" y2="6.06713" stroke="black" stroke-width="0.3"/>
<line x1="4.70587" y1="6.95532" x2="26.3529" y2="6.95532" stroke="black" stroke-width="0.3"/>
<line x1="4.70587" y1="7.84347" x2="26.3529" y2="7.84347" stroke="black" stroke-width="0.3"/>
<line x1="4.70587" y1="8.73165" x2="26.3529" y2="8.73165" stroke="black" stroke-width="0.3"/>
<line x1="4.70587" y1="9.61981" x2="26.3529" y2="9.61981" stroke="black" stroke-width="0.3"/>
<line x1="4.70587" y1="10.508" x2="26.3529" y2="10.508" stroke="black" stroke-width="0.3"/>
<line x1="4.70587" y1="11.3961" x2="26.3529" y2="11.3961" stroke="black" stroke-width="0.3"/>
<line x1="4.70587" y1="12.2843" x2="26.3529" y2="12.2843" stroke="black" stroke-width="0.3"/>
<line x1="4.70587" y1="13.1724" x2="26.3529" y2="13.1724" stroke="black" stroke-width="0.3"/>
<line x1="4.70587" y1="14.0606" x2="26.3529" y2="14.0606" stroke="black" stroke-width="0.3"/>
<line x1="4.70587" y1="14.9488" x2="26.3529" y2="14.9488" stroke="black" stroke-width="0.3"/>
<line x1="4.70587" y1="15.8369" x2="26.3529" y2="15.8369" stroke="black" stroke-width="0.3"/>
<line x1="4.70587" y1="16.7251" x2="26.3529" y2="16.7251" stroke="black" stroke-width="0.3"/>
<line x1="4.70587" y1="17.6132" x2="26.3529" y2="17.6132" stroke="black" stroke-width="0.3"/>
<line x1="4.70587" y1="18.5014" x2="26.3529" y2="18.5014" stroke="black" stroke-width="0.3"/>
<line x1="4.70587" y1="19.3896" x2="26.3529" y2="19.3896" stroke="black" stroke-width="0.3"/>
<line x1="4.70587" y1="20.2778" x2="26.3529" y2="20.2778" stroke="black" stroke-width="0.3"/>
<line x1="4.70587" y1="21.1659" x2="26.3529" y2="21.1659" stroke="black" stroke-width="0.3"/>
<line x1="4.70587" y1="22.0541" x2="26.3529" y2="22.0541" stroke="black" stroke-width="0.3"/>
<line x1="4.70587" y1="22.9423" x2="26.3529" y2="22.9423" stroke="black" stroke-width="0.3"/>
<line x1="4.70587" y1="23.8304" x2="26.3529" y2="23.8304" stroke="black" stroke-width="0.3"/>
<line x1="4.70587" y1="24.7186" x2="26.3529" y2="24.7186" stroke="black" stroke-width="0.3"/>
<line x1="4.70587" y1="25.6067" x2="26.3529" y2="25.6067" stroke="black" stroke-width="0.3"/>
<line x1="4.70587" y1="26.4949" x2="26.3529" y2="26.4949" stroke="black" stroke-width="0.3"/>
<line x1="4.70587" y1="27.3831" x2="26.3529" y2="27.3831" stroke="black" stroke-width="0.3"/>
<line x1="4.70587" y1="28.2712" x2="26.3529" y2="28.2712" stroke="black" stroke-width="0.3"/>
<line x1="4.70587" y1="29.1594" x2="26.3529" y2="29.1594" stroke="black" stroke-width="0.3"/>
</svg>
