<svg width="42" height="50" viewBox="0 0 42 50" fill="none" xmlns="http://www.w3.org/2000/svg">
<circle cx="21" cy="21" r="20.85" fill="white" stroke="black" stroke-width="0.3"/>
<path d="M32 39C32 36.0826 30.8411 33.2847 28.7782 31.2218C26.7153 29.1589 23.9174 28 21 28C18.0826 28 15.2847 29.1589 13.2218 31.2218C11.1589 33.2847 10 36.0826 10 39H10.635C10.635 36.251 11.727 33.6147 13.6708 31.6708C15.6147 29.727 18.251 28.635 21 28.635C23.749 28.635 26.3853 29.727 28.3292 31.6708C30.273 33.6147 31.365 36.251 31.365 39H32Z" fill="black"/>
<circle cx="21" cy="20" r="6.75" fill="white" stroke="black" stroke-width="0.5"/>
</svg>
